<?xml version="1.0" encoding="UTF-8"?>
<svg width="16px" height="16px" viewBox="0 0 16 16" version="1.1" xmlns="http://www.w3.org/2000/svg" xmlns:xlink="http://www.w3.org/1999/xlink">
    <!-- Generator: Sketch 49.3 (51167) - http://www.bohemiancoding.com/sketch -->
    <title>登录</title>
    <desc>Created with Sketch.</desc>
    <defs></defs>
    <g id="Page-1" stroke="none" stroke-width="1" fill="none" fill-rule="evenodd">
        <g id="登录" fill-rule="nonzero">
            <rect id="Rectangle-path" fill="#000000" opacity="0" x="0" y="0" width="16" height="16"></rect>
            <path d="M8,2 C4.69161676,2 2,4.69198101 2,8 C2,11.308019 4.69161676,14 8,14 C11.3083832,14 14,11.308019 14,8 C14,4.69198102 11.3083832,2 8,2 Z M8,13.4019485 C5.0254491,13.4019485 2.60479042,10.9797652 2.60479042,8 C2.60479042,5.0217337 5.0254491,2.59805146 8,2.59805146 C10.9745509,2.59805146 13.3952096,5.0217337 13.3952096,8 C13.3937126,10.9782663 10.9745509,13.4019485 8,13.4019485 Z M11.4670659,7.88608543 L8.96407184,5.37846615 C8.9026946,5.31701225 8.76946106,5.34848864 8.66766466,5.44891331 C8.56586826,5.55083686 8.53443112,5.68273794 8.59730539,5.74569073 L10.5718563,7.72270797 L4.77544911,7.72270797 C4.6227545,7.72270797 4.49850299,7.84711467 4.49850299,8 C4.49850299,8.15288533 4.6227545,8.27729203 4.77544911,8.27729203 L10.5718563,8.27729203 L8.59730539,10.2543093 C8.53592815,10.3157632 8.56736527,10.4491631 8.66766466,10.5510867 C8.76946106,10.6530102 8.9011976,10.6844866 8.96407184,10.6215338 L11.4685629,8.11391455 C11.4880239,8.09442916 11.498503,8.06894828 11.5,8.03897075 C11.501497,8.01199098 11.501497,7.98651009 11.5,7.95953034 C11.497006,7.9310517 11.4865269,7.90557083 11.4670659,7.88608543 Z" id="Shape" fill="#FFFFFF"></path>
        </g>
    </g>
</svg>