<?xml version="1.0" encoding="UTF-8"?>
<svg width="17px" height="17px" viewBox="0 0 17 17" version="1.1" xmlns="http://www.w3.org/2000/svg" xmlns:xlink="http://www.w3.org/1999/xlink">
    <!-- Generator: Sketch 49.3 (51167) - http://www.bohemiancoding.com/sketch -->
    <title>密码</title>
    <desc>Created with Sketch.</desc>
    <defs></defs>
    <g id="Page-1" stroke="none" stroke-width="1" fill="none" fill-rule="evenodd">
        <g id="密码" fill-rule="nonzero">
            <rect id="Rectangle-path" fill="#000000" opacity="0" x="0" y="0" width="17" height="17"></rect>
            <path d="M11.15625,7.9305 C12.4264687,7.19525 13.28125,5.8214375 13.28125,4.25 C13.28125,1.904 11.3767187,0 9.03125,0 C6.68578125,0 4.78125,1.904 4.78125,4.25 C4.78125,5.8214375 5.63603125,7.19525 6.90625,7.9305 L6.90625,9.5625 L7.4375,10.359375 L6.90625,11.15625 L6.90625,12.21875 L7.4375,13.015625 L6.90625,13.8125 L6.90625,15.671875 C6.90625,15.671875 7.7679375,16.317875 8.39375,16.7875 C8.77146875,17.0706563 9.29103125,17.0706563 9.66875,16.7875 C10.2945625,16.317875 11.15625,15.671875 11.15625,15.671875 L11.15625,7.9305 Z M9.03125,1.59375 C9.61775,1.59375 10.09375,2.06975 10.09375,2.65625 C10.09375,3.24221875 9.61775,3.71875 9.03125,3.71875 C8.44475,3.71875 7.96875,3.24221875 7.96875,2.65625 C7.96875,2.06975 8.44475,1.59375 9.03125,1.59375 Z" id="Shape" fill="#5A5E65"></path>
        </g>
    </g>
</svg>