<?xml version="1.0" encoding="UTF-8"?>
<svg width="16px" height="16px" viewBox="0 0 16 16" version="1.1" xmlns="http://www.w3.org/2000/svg" xmlns:xlink="http://www.w3.org/1999/xlink">
    <!-- Generator: Sketch 49.3 (51167) - http://www.bohemiancoding.com/sketch -->
    <title>用户名</title>
    <desc>Created with Sketch.</desc>
    <defs></defs>
    <g id="Page-1" stroke="none" stroke-width="1" fill="none" fill-rule="evenodd">
        <g id="ba-user" fill-rule="nonzero">
            <rect id="Rectangle-path" fill="#000000" opacity="0" x="0" y="0" width="16" height="16"></rect>
            <path d="M3.56102827,4.6717421 C3.56102827,7.1233185 5.54842361,9.11071384 8,9.11071384 C10.4515764,9.11071384 12.4389717,7.1233185 12.4389717,4.6717421 C12.4389717,2.22016574 10.4515764,0.232770436 8,0.232770436 C5.54842363,0.232770436 3.5610283,2.22016574 3.56102827,4.6717421 Z M0.23277037,14.6578103 C0.23277037,15.2701269 0.732462143,15.7672296 1.33701152,15.7672296 L14.6629885,15.7672296 C14.9565384,15.7665438 15.2377926,15.6492733 15.4448782,15.4412167 C15.6519638,15.23316 15.7679171,14.9513602 15.7672296,14.6578103 C15.7672296,13.4805218 15.2995536,12.351452 14.4670849,11.5189833 C13.6346162,10.6865146 12.5055464,10.2188386 11.3282579,10.2188386 L4.67303664,10.2188386 C3.49552386,10.2184952 2.36612143,10.6860196 1.53337274,11.5185255 C0.700624055,12.3510314 0.23277032,13.4802975 0.23277037,14.6578103 Z" id="Shape" fill="#5A5E65"></path>
        </g>
    </g>
</svg>